<mxfile host="Electron" modified="2023-10-17T12:03:22.791Z" agent="Mozilla/5.0 (Windows NT 10.0; Win64; x64) AppleWebKit/537.36 (KHTML, like Gecko) draw.io/22.0.2 Chrome/114.0.5735.289 Electron/25.8.4 Safari/537.36" etag="0amiK6TVBcGjkdw2h4jr" version="22.0.2" type="device">
  <diagram name="Page-1" id="_w_F8cTAkjjh35FQ1AhC">
    <mxGraphModel dx="1050" dy="629" grid="1" gridSize="10" guides="1" tooltips="1" connect="1" arrows="1" fold="1" page="1" pageScale="1" pageWidth="827" pageHeight="1169" math="0" shadow="0">
      <root>
        <mxCell id="0" />
        <mxCell id="1" parent="0" />
        <mxCell id="Rxxgw6_y-r-iEYwpkLm5-1" value="Persoon" style="swimlane;fontStyle=1;childLayout=stackLayout;horizontal=1;startSize=26;horizontalStack=0;resizeParent=1;resizeParentMax=0;resizeLast=0;collapsible=1;marginBottom=0;align=center;fontSize=14;strokeColor=#666666;fillColor=#f5f5f5;fontColor=#333333;" vertex="1" parent="1">
          <mxGeometry x="330" y="100" width="160" height="96" as="geometry" />
        </mxCell>
        <mxCell id="Rxxgw6_y-r-iEYwpkLm5-3" value="&lt;u&gt;code&lt;/u&gt;&lt;br&gt;naam&lt;br&gt;adres&lt;br&gt;&lt;u&gt;email&lt;/u&gt;" style="text;html=1;strokeColor=none;fillColor=none;align=center;verticalAlign=middle;whiteSpace=wrap;rounded=0;" vertex="1" parent="Rxxgw6_y-r-iEYwpkLm5-1">
          <mxGeometry y="26" width="160" height="70" as="geometry" />
        </mxCell>
        <mxCell id="Rxxgw6_y-r-iEYwpkLm5-5" value="Student" style="swimlane;fontStyle=1;childLayout=stackLayout;horizontal=1;startSize=26;horizontalStack=0;resizeParent=1;resizeParentMax=0;resizeLast=0;collapsible=1;marginBottom=0;align=center;fontSize=14;strokeColor=#666666;fillColor=#f5f5f5;fontColor=#333333;" vertex="1" parent="1">
          <mxGeometry x="170" y="290" width="160" height="80" as="geometry" />
        </mxCell>
        <mxCell id="Rxxgw6_y-r-iEYwpkLm5-31" value="klas&lt;br&gt;klascode&lt;br&gt;sNr" style="text;html=1;strokeColor=none;fillColor=none;align=center;verticalAlign=middle;whiteSpace=wrap;rounded=0;imageAspect=1;" vertex="1" parent="Rxxgw6_y-r-iEYwpkLm5-5">
          <mxGeometry y="26" width="160" height="54" as="geometry" />
        </mxCell>
        <mxCell id="Rxxgw6_y-r-iEYwpkLm5-9" value="Werknemer" style="swimlane;fontStyle=1;childLayout=stackLayout;horizontal=1;startSize=26;horizontalStack=0;resizeParent=1;resizeParentMax=0;resizeLast=0;collapsible=1;marginBottom=0;align=center;fontSize=14;strokeColor=#666666;fillColor=#f5f5f5;fontColor=#333333;" vertex="1" parent="1">
          <mxGeometry x="490" y="290" width="160" height="56" as="geometry" />
        </mxCell>
        <mxCell id="Rxxgw6_y-r-iEYwpkLm5-14" value="Text" style="text;html=1;strokeColor=none;fillColor=none;align=center;verticalAlign=middle;whiteSpace=wrap;rounded=0;" vertex="1" parent="Rxxgw6_y-r-iEYwpkLm5-9">
          <mxGeometry y="26" width="160" height="30" as="geometry" />
        </mxCell>
        <mxCell id="Rxxgw6_y-r-iEYwpkLm5-11" style="edgeStyle=orthogonalEdgeStyle;rounded=0;orthogonalLoop=1;jettySize=auto;html=1;exitX=0.5;exitY=1;exitDx=0;exitDy=0;" edge="1" parent="1" source="Rxxgw6_y-r-iEYwpkLm5-3" target="Rxxgw6_y-r-iEYwpkLm5-5">
          <mxGeometry relative="1" as="geometry" />
        </mxCell>
        <mxCell id="Rxxgw6_y-r-iEYwpkLm5-12" style="edgeStyle=orthogonalEdgeStyle;rounded=0;orthogonalLoop=1;jettySize=auto;html=1;exitX=0.5;exitY=1;exitDx=0;exitDy=0;" edge="1" parent="1" source="Rxxgw6_y-r-iEYwpkLm5-3" target="Rxxgw6_y-r-iEYwpkLm5-9">
          <mxGeometry relative="1" as="geometry" />
        </mxCell>
        <mxCell id="Rxxgw6_y-r-iEYwpkLm5-49" value="{man, OR}" style="edgeLabel;html=1;align=center;verticalAlign=middle;resizable=0;points=[];" vertex="1" connectable="0" parent="Rxxgw6_y-r-iEYwpkLm5-12">
          <mxGeometry x="-0.8918" y="-4" relative="1" as="geometry">
            <mxPoint x="34" as="offset" />
          </mxGeometry>
        </mxCell>
        <mxCell id="Rxxgw6_y-r-iEYwpkLm5-19" value="Lector" style="swimlane;fontStyle=1;childLayout=stackLayout;horizontal=1;startSize=26;horizontalStack=0;resizeParent=1;resizeParentMax=0;resizeLast=0;collapsible=1;marginBottom=0;align=center;fontSize=14;strokeColor=#666666;fillColor=#f5f5f5;fontColor=#333333;" vertex="1" parent="1">
          <mxGeometry x="390" y="410" width="160" height="56" as="geometry" />
        </mxCell>
        <mxCell id="Rxxgw6_y-r-iEYwpkLm5-20" value=" " style="text;strokeColor=none;fillColor=none;spacingLeft=4;spacingRight=4;overflow=hidden;rotatable=0;points=[[0,0.5],[1,0.5]];portConstraint=eastwest;fontSize=12;" vertex="1" parent="Rxxgw6_y-r-iEYwpkLm5-19">
          <mxGeometry y="26" width="160" height="30" as="geometry" />
        </mxCell>
        <mxCell id="Rxxgw6_y-r-iEYwpkLm5-21" value="Admin" style="swimlane;fontStyle=1;childLayout=stackLayout;horizontal=1;startSize=26;horizontalStack=0;resizeParent=1;resizeParentMax=0;resizeLast=0;collapsible=1;marginBottom=0;align=center;fontSize=14;strokeColor=#666666;fillColor=#f5f5f5;fontColor=#333333;" vertex="1" parent="1">
          <mxGeometry x="610" y="410" width="160" height="56" as="geometry" />
        </mxCell>
        <mxCell id="Rxxgw6_y-r-iEYwpkLm5-22" value=" " style="text;strokeColor=none;fillColor=none;spacingLeft=4;spacingRight=4;overflow=hidden;rotatable=0;points=[[0,0.5],[1,0.5]];portConstraint=eastwest;fontSize=12;" vertex="1" parent="Rxxgw6_y-r-iEYwpkLm5-21">
          <mxGeometry y="26" width="160" height="30" as="geometry" />
        </mxCell>
        <mxCell id="Rxxgw6_y-r-iEYwpkLm5-24" style="edgeStyle=orthogonalEdgeStyle;rounded=0;orthogonalLoop=1;jettySize=auto;html=1;exitX=0.5;exitY=1;exitDx=0;exitDy=0;entryX=0.5;entryY=0;entryDx=0;entryDy=0;" edge="1" parent="1" source="Rxxgw6_y-r-iEYwpkLm5-14" target="Rxxgw6_y-r-iEYwpkLm5-19">
          <mxGeometry relative="1" as="geometry" />
        </mxCell>
        <mxCell id="Rxxgw6_y-r-iEYwpkLm5-25" style="edgeStyle=orthogonalEdgeStyle;rounded=0;orthogonalLoop=1;jettySize=auto;html=1;exitX=0.5;exitY=1;exitDx=0;exitDy=0;" edge="1" parent="1" source="Rxxgw6_y-r-iEYwpkLm5-14" target="Rxxgw6_y-r-iEYwpkLm5-21">
          <mxGeometry relative="1" as="geometry" />
        </mxCell>
        <mxCell id="Rxxgw6_y-r-iEYwpkLm5-51" value="{opt, AND}" style="edgeLabel;html=1;align=center;verticalAlign=middle;resizable=0;points=[];" vertex="1" connectable="0" parent="Rxxgw6_y-r-iEYwpkLm5-25">
          <mxGeometry x="-0.8239" relative="1" as="geometry">
            <mxPoint x="30" as="offset" />
          </mxGeometry>
        </mxCell>
        <mxCell id="Rxxgw6_y-r-iEYwpkLm5-32" value="Vak" style="swimlane;fontStyle=1;childLayout=stackLayout;horizontal=1;startSize=26;horizontalStack=0;resizeParent=1;resizeParentMax=0;resizeLast=0;collapsible=1;marginBottom=0;align=center;fontSize=14;strokeColor=#666666;fillColor=#f5f5f5;fontColor=#333333;" vertex="1" parent="1">
          <mxGeometry x="80" y="423" width="160" height="56" as="geometry" />
        </mxCell>
        <mxCell id="Rxxgw6_y-r-iEYwpkLm5-35" value="vakNaam" style="text;html=1;strokeColor=none;fillColor=none;align=center;verticalAlign=middle;whiteSpace=wrap;rounded=0;" vertex="1" parent="Rxxgw6_y-r-iEYwpkLm5-32">
          <mxGeometry y="26" width="160" height="30" as="geometry" />
        </mxCell>
        <mxCell id="Rxxgw6_y-r-iEYwpkLm5-36" style="edgeStyle=orthogonalEdgeStyle;rounded=0;orthogonalLoop=1;jettySize=auto;html=1;exitX=0;exitY=0.5;exitDx=0;exitDy=0;entryX=1;entryY=0.5;entryDx=0;entryDy=0;endArrow=none;endFill=0;" edge="1" parent="1" source="Rxxgw6_y-r-iEYwpkLm5-20" target="Rxxgw6_y-r-iEYwpkLm5-32">
          <mxGeometry relative="1" as="geometry" />
        </mxCell>
        <mxCell id="Rxxgw6_y-r-iEYwpkLm5-37" value="?..N" style="edgeLabel;html=1;align=center;verticalAlign=middle;resizable=0;points=[];" vertex="1" connectable="0" parent="Rxxgw6_y-r-iEYwpkLm5-36">
          <mxGeometry x="0.6862" y="-2" relative="1" as="geometry">
            <mxPoint y="-11" as="offset" />
          </mxGeometry>
        </mxCell>
        <mxCell id="Rxxgw6_y-r-iEYwpkLm5-38" value="1..N" style="edgeLabel;html=1;align=center;verticalAlign=middle;resizable=0;points=[];" vertex="1" connectable="0" parent="Rxxgw6_y-r-iEYwpkLm5-36">
          <mxGeometry x="-0.8062" relative="1" as="geometry">
            <mxPoint x="-7" y="-11" as="offset" />
          </mxGeometry>
        </mxCell>
        <mxCell id="Rxxgw6_y-r-iEYwpkLm5-39" style="edgeStyle=orthogonalEdgeStyle;rounded=0;orthogonalLoop=1;jettySize=auto;html=1;exitX=0.5;exitY=1;exitDx=0;exitDy=0;entryX=0.5;entryY=0;entryDx=0;entryDy=0;endArrow=none;endFill=0;" edge="1" parent="1" source="Rxxgw6_y-r-iEYwpkLm5-31" target="Rxxgw6_y-r-iEYwpkLm5-32">
          <mxGeometry relative="1" as="geometry" />
        </mxCell>
        <mxCell id="Rxxgw6_y-r-iEYwpkLm5-40" value="&amp;lt;Volgt" style="edgeLabel;html=1;align=center;verticalAlign=middle;resizable=0;points=[];" vertex="1" connectable="0" parent="Rxxgw6_y-r-iEYwpkLm5-39">
          <mxGeometry x="-0.0908" y="1" relative="1" as="geometry">
            <mxPoint y="3" as="offset" />
          </mxGeometry>
        </mxCell>
        <mxCell id="Rxxgw6_y-r-iEYwpkLm5-41" value="0..N" style="edgeLabel;html=1;align=center;verticalAlign=middle;resizable=0;points=[];" vertex="1" connectable="0" parent="Rxxgw6_y-r-iEYwpkLm5-39">
          <mxGeometry x="-0.8871" y="2" relative="1" as="geometry">
            <mxPoint as="offset" />
          </mxGeometry>
        </mxCell>
        <mxCell id="Rxxgw6_y-r-iEYwpkLm5-42" value="0..N" style="edgeLabel;html=1;align=center;verticalAlign=middle;resizable=0;points=[];" vertex="1" connectable="0" parent="Rxxgw6_y-r-iEYwpkLm5-39">
          <mxGeometry x="0.8552" relative="1" as="geometry">
            <mxPoint y="-1" as="offset" />
          </mxGeometry>
        </mxCell>
        <mxCell id="Rxxgw6_y-r-iEYwpkLm5-48" style="edgeStyle=orthogonalEdgeStyle;rounded=0;orthogonalLoop=1;jettySize=auto;html=1;exitX=1;exitY=0.75;exitDx=0;exitDy=0;endArrow=none;endFill=0;dashed=1;" edge="1" parent="1" source="Rxxgw6_y-r-iEYwpkLm5-47">
          <mxGeometry relative="1" as="geometry">
            <mxPoint x="160" y="400" as="targetPoint" />
          </mxGeometry>
        </mxCell>
        <mxCell id="Rxxgw6_y-r-iEYwpkLm5-47" value="Resultaat" style="rounded=0;whiteSpace=wrap;html=1;fillColor=none;" vertex="1" parent="1">
          <mxGeometry x="10" y="316" width="120" height="60" as="geometry" />
        </mxCell>
      </root>
    </mxGraphModel>
  </diagram>
</mxfile>
